# xmcd
#
# Track frame offsets:
#	150
#	16197
#	33288
#	51358
#	68881
#	88310
#	115742
#	134264
#
# Disc length: 2053 seconds
#
# Revision: 1624523330
# Processed by: cddbd v1.5.2PL0 Copyright (c) Steve Scherf et al.
# Submitted via: EZCDAudioConverter 8.0.2.1
#
DISCID=67080308
DTITLE=Nhóm Mây Trắng - Lời Nói Muộn Màng
DYEAR=2007
DGENRE=World Pop
TTITLE0=Nhóm Mây Trắng - Cô bé đáng yêu
TTITLE1=Nhóm Mây Trắng - Muộn Màng
TTITLE2=Nhóm Mây Trắng - Dành cho anh
TTITLE3=Nhóm Mây Trắng - Hạnh phúc bên ta
TTITLE4=Nhóm Mây Trắng - Đừng hiểu lầm em
TTITLE5=Nhóm Mây Trắng, Phạm Hòa Khánh - Ghét anh
TTITLE6=Nhóm Mây Trắng - Năm lý do
TTITLE7=Nhóm Mây Trắng - Còn đâu ngày ấy
EXTD=
EXTT0=
EXTT1=
EXTT2=
EXTT3=
EXTT4=
EXTT5=
EXTT6=
EXTT7=
PLAYORDER=
